<svg xmlns="http://www.w3.org/2000/svg" width="122" height="28" viewBox="0 0 122 28" fill="none">
  <mask id="mask0_2282_30571" style="mask-type:alpha" maskUnits="userSpaceOnUse" x="0" y="0" width="122" height="28">
    <rect width="122" height="28" fill="#D9D9D9"/>
  </mask>
  <g mask="url(#mask0_2282_30571)">
    <path d="M93.0195 6.67578V20.0011H98.5468V15.1231H104.698V12.2053H98.5468V9.59366H110.753V20.0011H116.285V9.59366H121.311V6.67578H93.0195Z" fill="#0AA373"/>
    <path d="M81.298 17.1111V14.8002H88.5946V11.8823H81.298V9.59366H90.6573V6.67578H75.7656V20.0011H90.7692V17.1111H81.298Z" fill="#0AA373"/>
    <path d="M53.5661 6.67578H38.4453V9.59366H43.3914V20.0011H48.9185V9.59366H53.5661V6.67578Z" fill="#E84241"/>
    <path d="M22.4233 6.67578H6.94531V9.59366H11.8914V20.0011H17.4238V9.59366H22.4233V6.67578Z" fill="#E84241"/>
    <path d="M33.3635 6.67578H27.3993L20.4492 20.0011H24.0682L25.2088 17.7125H33.0117L34.1523 20.0011H40.3136L33.3635 6.67578ZM26.5892 14.9561L29.1635 9.79412L31.6259 14.9561H26.5892Z" fill="#E84241"/>
    <path d="M68.6829 6.67578V13.3357L59.7767 6.67578H55.4648V20.0011H59.2704V12.6674L68.4111 20.0011H72.4884V6.67578H68.6829Z" fill="#0AA373"/>
  </g>
</svg>
