<svg width="50" height="50" viewBox="0 0 50 50" fill="none" xmlns="http://www.w3.org/2000/svg">
<path d="M25.0017 3.35352C13.0655 3.35352 3.35547 13.0635 3.35547 24.9998C3.35547 36.936 13.0667 46.646 25.0017 46.646C36.9367 46.646 46.6455 36.9348 46.6455 24.9998C46.6455 13.0648 36.9367 3.35352 25.0017 3.35352ZM25.0017 44.771C14.0992 44.771 5.23047 35.901 5.23047 24.9998C5.23047 14.0985 14.0992 5.22852 25.0017 5.22852C35.903 5.22852 44.7705 14.0985 44.7705 24.9998C44.7705 35.901 35.903 44.771 25.0017 44.771Z" fill="white"/>
<path d="M33.0898 29.5689L32.3798 29.1239C32.3279 29.0904 32.2699 29.0679 32.209 29.0576C32.1482 29.0472 32.086 29.0494 32.026 29.0639C31.9661 29.0774 31.9095 29.1027 31.8595 29.1384C31.8095 29.174 31.7671 29.2192 31.7348 29.2714C31.0253 30.4132 30.0358 31.3547 28.8601 32.0065C27.6843 32.6582 26.3615 32.9985 25.0173 32.9952C23.665 32.9992 22.3344 32.6553 21.1536 31.9963C19.9727 31.3374 18.9813 30.3856 18.2748 29.2326C18.2092 29.1272 18.1046 29.0519 17.9837 29.0234C17.8629 28.9948 17.7356 29.0152 17.6298 29.0802L16.9148 29.5214C16.809 29.5867 16.7336 29.6914 16.705 29.8123C16.6764 29.9333 16.697 30.0606 16.7623 30.1664C17.6285 31.5765 18.8427 32.7404 20.2883 33.5461C21.7339 34.3519 23.3623 34.7725 25.0173 34.7676C26.6619 34.7721 28.2805 34.3562 29.7193 33.5595C31.1581 32.7627 32.3695 31.6115 33.2385 30.2152C33.2712 30.163 33.2933 30.1048 33.3035 30.0441C33.3137 29.9834 33.3119 29.9212 33.298 29.8612C33.2842 29.8012 33.2587 29.7445 33.223 29.6943C33.1872 29.6442 33.142 29.6016 33.0898 29.5689Z" fill="white"/>
<path d="M19.0814 20.6998C19.8021 20.6998 20.3864 20.1156 20.3864 19.3948C20.3864 18.6741 19.8021 18.0898 19.0814 18.0898C18.3606 18.0898 17.7764 18.6741 17.7764 19.3948C17.7764 20.1156 18.3606 20.6998 19.0814 20.6998Z" fill="white"/>
<path d="M30.5042 20.6998C31.225 20.6998 31.8092 20.1156 31.8092 19.3948C31.8092 18.6741 31.225 18.0898 30.5042 18.0898C29.7835 18.0898 29.1992 18.6741 29.1992 19.3948C29.1992 20.1156 29.7835 20.6998 30.5042 20.6998Z" fill="white"/>
</svg>
