<svg width="352" height="284" viewBox="0 0 352 284" fill="none" xmlns="http://www.w3.org/2000/svg">
<path d="M123 135V177" stroke="#DD3C3B" stroke-width="5" stroke-linecap="round" stroke-linejoin="round"/>
<path fill-rule="evenodd" clip-rule="evenodd" d="M153 168.535V168.535C153 174.315 157.693 179 163.482 179H207.327C210.83 179.002 214.101 177.252 216.041 174.339L227.245 157.536C228.39 155.812 229.001 153.788 229 151.719V131.249V131.249C229 128.474 227.896 125.812 225.93 123.85C223.964 121.887 221.298 120.785 218.518 120.785H199.123V102.987C199.123 96.919 194.196 92 188.118 92H181.831C178.144 91.9938 174.725 93.9247 172.831 97.0833L155.988 125.122C154.034 128.373 153.001 132.094 153 135.885V168.535Z" stroke="#DD3C3B" stroke-width="5" stroke-linecap="round" stroke-linejoin="round"/>
<path fill-rule="evenodd" clip-rule="evenodd" d="M84.2758 206.261L76.4297 241.57L111.739 233.724C159.304 267.048 224.451 258.485 261.788 214C299.125 169.515 296.263 103.87 255.196 62.8038C214.13 21.7373 148.485 18.8755 104 56.2124C59.5155 93.5494 50.9518 158.696 84.2758 206.261Z" stroke="#DD3C3B" stroke-width="5" stroke-linecap="round" stroke-linejoin="round"/>
<path d="M326 281V258H349" stroke="#1B1D1C" stroke-width="5" stroke-linecap="round" stroke-linejoin="round"/>
<path d="M26 3V26H3" stroke="#1B1D1C" stroke-width="5" stroke-linecap="round" stroke-linejoin="round"/>
</svg>
