<?xml version="1.0" encoding="utf-8"?><svg xmlns="http://www.w3.org/2000/svg" xmlns:xlink="http://www.w3.org/1999/xlink"><symbol viewBox="0 0 18 18" id="arrow-line" xmlns="http://www.w3.org/2000/svg"><path d="M14.25 9H3.75M10.5 12.75L14.25 9M10.5 5.25L14.25 9"/></symbol><symbol viewBox="0 0 8 16" id="arrow-triangle" xmlns="http://www.w3.org/2000/svg"><path d="M8 8l-8 8V0l8 8z"/></symbol><symbol viewBox="0 0 24 24" id="arrrow-shevron" xmlns="http://www.w3.org/2000/svg"><path d="M10 16l4-4-4-4"/></symbol><symbol viewBox="0 0 16 16" id="burger" xmlns="http://www.w3.org/2000/svg"><path d="M1 3h14M1 8h14M1 13h14"/></symbol><symbol viewBox="0 0 16 16" id="calendar" xmlns="http://www.w3.org/2000/svg"><path d="M12.667 2.667H3.333C2.597 2.667 2 3.263 2 4v9.333c0 .737.597 1.333 1.333 1.333h9.334c.736 0 1.333-.596 1.333-1.333V4c0-.737-.597-1.333-1.333-1.333zM10.664 1.333V4M5.336 1.333V4M2 6.667h12"/></symbol><symbol viewBox="0 0 28 27" id="cross" xmlns="http://www.w3.org/2000/svg"><g clip-path="url(#fclip0_807_22048)"><path d="M19.5 21l-4.997-4.997L9.506 21a1.413 1.413 0 11-1.999-2l4.997-4.996-4.997-4.998a1.413 1.413 0 111.999-1.999l4.997 4.998L19.5 7.007a1.414 1.414 0 012 2l-4.998 4.997L21.5 19A1.413 1.413 0 1119.5 21z"/></g><defs><clipPath id="fclip0_807_22048"><path transform="translate(.745 .245)" d="M0 0h26.509v26.509H0z"/></clipPath></defs></symbol><symbol viewBox="0 0 18 18" id="cup" xmlns="http://www.w3.org/2000/svg"><path clip-rule="evenodd" d="M6 3h6a.75.75 0 01.75.75v4.5A3.75 3.75 0 019 12v0a3.75 3.75 0 01-3.75-3.75v-4.5A.75.75 0 016 3z"/><path d="M12.505 9.585l1.419-.71a2.625 2.625 0 001.451-2.347V5.525a.656.656 0 00-.656-.656H12.75M9 15v-3M12 15H6M5.495 9.585l-1.419-.71a2.625 2.625 0 01-1.451-2.347V5.525c0-.362.294-.656.656-.656H5.25"/></symbol><symbol viewBox="0 0 24 24" id="expand" xmlns="http://www.w3.org/2000/svg"><path d="M6.796 5.542l1.029-1.029a.188.188 0 00-.11-.319L3.96 3.751a.188.188 0 00-.209.209l.443 3.755c.019.154.209.22.319.11L5.537 6.8l3.134 3.13a.188.188 0 00.265 0l.993-.99a.188.188 0 000-.265L6.796 5.542zm8.266 4.39a.188.188 0 00.265 0L18.461 6.8l1.024 1.024a.188.188 0 00.319-.11l.443-3.753a.188.188 0 00-.209-.208l-3.755.443a.188.188 0 00-.11.318l1.03 1.03-3.134 3.128a.188.188 0 000 .265l.993.994zm4.742 6.356a.188.188 0 00-.32-.11l-1.023 1.024-3.134-3.131a.188.188 0 00-.265 0l-.993.991a.188.188 0 000 .265l3.133 3.134-1.029 1.029a.187.187 0 00.11.318l3.755.443a.188.188 0 00.209-.208l-.443-3.755zM8.936 14.071a.189.189 0 00-.265 0l-3.134 3.131-1.024-1.024a.187.187 0 00-.319.11l-.443 3.752a.188.188 0 00.209.209l3.755-.443a.188.188 0 00.11-.319l-1.03-1.026 3.134-3.132a.188.188 0 000-.264l-.993-.994z"/></symbol><symbol viewBox="0 0 18 18" id="logout" xmlns="http://www.w3.org/2000/svg"><path d="M11.535 9H2.25M9 6.469L11.531 9 9 11.53"/><path d="M2.25 12.375v1.688c0 .932.755 1.687 1.688 1.687h10.124c.933 0 1.688-.755 1.688-1.688V3.938c0-.933-.755-1.688-1.688-1.688H3.938c-.933 0-1.688.755-1.688 1.688v1.687"/></symbol><symbol viewBox="0 0 16 16" id="ok" xmlns="http://www.w3.org/2000/svg"><path clip-rule="evenodd" d="M10.968 4.867c0 1.581-1.332 2.867-2.97 2.867-1.638 0-2.97-1.286-2.97-2.867C5.027 3.287 6.36 2 7.997 2c1.638 0 2.97 1.286 2.97 2.867zm-1.74 0c0-.654-.552-1.187-1.23-1.187-.678 0-1.23.533-1.23 1.187 0 .655.552 1.187 1.23 1.187.678 0 1.23-.532 1.23-1.187z"/><path d="M10.932 9.385a5.677 5.677 0 01-1.725.69l1.66 1.602c.34.328.34.86 0 1.188a.892.892 0 01-1.23 0L8.005 11.29l-1.631 1.575a.886.886 0 01-.616.246.885.885 0 01-.615-.246.82.82 0 010-1.188l1.66-1.603a5.686 5.686 0 01-1.725-.69.823.823 0 01-.272-1.158.888.888 0 011.2-.264 3.887 3.887 0 003.999 0 .888.888 0 011.2.264.823.823 0 01-.273 1.159z"/></symbol><symbol viewBox="0 0 16 16" id="pin" xmlns="http://www.w3.org/2000/svg"><path d="M8 1C5.24 1 3 3.016 3 5.5c0 4 5 9.5 5 9.5s5-5.5 5-9.5C13 3.016 10.76 1 8 1zm0 7a2 2 0 110-4 2 2 0 010 4z"/></symbol><symbol viewBox="0 0 14 21" id="play" xmlns="http://www.w3.org/2000/svg"><path d="M14 10.5L0 21V0l14 10.5z"/></symbol><symbol viewBox="0 0 18 19" id="star" xmlns="http://www.w3.org/2000/svg"><path d="M9 2l2.318 4.695 5.182.757-3.75 3.653.885 5.16L9 13.827l-4.635 2.438.885-5.16L1.5 7.452l5.183-.757L9 2z"/></symbol><symbol viewBox="0 0 16 16" id="tg" xmlns="http://www.w3.org/2000/svg"><path clip-rule="evenodd" d="M1.83 7.153a759.609 759.609 0 016.506-2.691C11.431 3.222 12.082 3.009 12.5 3c.093 0 .297.018.437.125.112.089.14.205.158.294.018.089.037.276.018.419-.167 1.693-.892 5.802-1.263 7.691-.159.802-.465 1.07-.763 1.096-.65.054-1.143-.41-1.766-.802-.985-.615-1.533-.998-2.49-1.604-1.107-.695-.391-1.078.241-1.702.167-.16 3.02-2.656 3.077-2.879.009-.027.009-.134-.056-.187-.065-.054-.158-.036-.233-.018-.102.018-1.663 1.016-4.703 2.986-.446.294-.845.436-1.208.428-.4-.01-1.162-.214-1.738-.393-.697-.214-1.255-.33-1.208-.704.028-.196.306-.392.827-.597z"/></symbol><symbol viewBox="0 0 16 16" id="time" xmlns="http://www.w3.org/2000/svg"><g clip-path="url(#oclip0_807_23067)"><path d="M8.003 14.667a6.667 6.667 0 100-13.333 6.667 6.667 0 000 13.333z"/><path d="M8 4v4l2.667 1.333"/></g><defs><clipPath id="oclip0_807_23067"><path d="M0 0h16v16H0z"/></clipPath></defs></symbol><symbol viewBox="0 0 16 16" id="verificated" xmlns="http://www.w3.org/2000/svg"><path clip-rule="evenodd" d="M2.33 8.977l.797 1.042.172 1.298c.095.72.661 1.287 1.381 1.383l1.301.174 1.042.796c.577.44 1.376.44 1.953 0l1.043-.797h-.002l1.299-.172a1.608 1.608 0 001.383-1.381l.173-1.301.797-1.042c.44-.577.44-1.376 0-1.953l-.796-1.043-.172-1.298A1.608 1.608 0 0011.32 3.3l-1.302-.173-1.042-.796a1.607 1.607 0 00-1.953 0l-1.042.796h.001l-1.299.172a1.608 1.608 0 00-1.382 1.382l-.174 1.301-.797 1.042a1.61 1.61 0 000 1.953v0z"/><path d="M9.869 7.068L7.535 9.402l-1.402-1.4"/></symbol><symbol viewBox="0 0 16 16" id="vk" xmlns="http://www.w3.org/2000/svg"><path d="M8.46 12.4C4.406 12.4 2.095 9.622 2 5h2.03c.066 3.393 1.563 4.83 2.748 5.126V5h1.91v2.926C9.86 7.8 11.089 6.466 11.505 5h1.91a5.644 5.644 0 01-2.6 3.689A5.852 5.852 0 0113.86 12.4h-2.103a3.66 3.66 0 00-3.067-2.644V12.4h-.23z"/></symbol><symbol viewBox="0 0 18 13" id="yt" xmlns="http://www.w3.org/2000/svg"><path d="M17.82 2.805s-.175-1.274-.716-1.834C16.418.235 15.652.231 15.3.188 12.783 0 9.004 0 9.004 0h-.008S5.217 0 2.7.188C2.348.23 1.582.235.896.97c-.54.56-.713 1.834-.713 1.834S0 4.303 0 5.798v1.4c0 1.495.18 2.993.18 2.993s.175 1.275.713 1.834c.686.737 1.586.711 1.986.79C4.321 12.958 9 13 9 13s3.783-.007 6.3-.191c.352-.044 1.118-.047 1.803-.784.542-.56.718-1.834.718-1.834S18 8.697 18 7.2V5.798c0-1.495-.18-2.993-.18-2.993zM7.14 8.9V3.704l4.862 2.606L7.14 8.9z"/></symbol></svg>