<svg width="213" height="61" viewBox="0 0 213 61" fill="none" xmlns="http://www.w3.org/2000/svg">
<path d="M23.7176 12.7197C27.4374 22.6648 21.3683 29.0515 15.3318 35.4467C9.70315 41.9794 4.75158 48.7785 14.72 61.0016C11.0002 51.0564 17.0612 44.6698 23.1058 38.2746C28.7262 31.7333 33.6778 24.9514 23.7176 12.7197Z" fill="#DD3C3B"/>
<path d="M14.715 0C18.4349 9.95378 12.3658 16.3318 6.3293 22.727C0.708834 29.2682 -4.25087 36.0674 5.71749 48.2819C1.9977 38.328 8.05859 31.9501 14.1032 25.5549C19.7318 19.0136 24.6753 12.223 14.715 0Z" fill="#0AA373"/>
<path d="M168.391 39.1816V59.751H176.85V52.2212H186.264V47.7171H176.85V43.6857H195.532V59.751H204V43.6857H211.693V39.1816H168.391Z" fill="#0AA373"/>
<path d="M150.444 54.8182V51.251H161.612V46.747H150.444V43.2141H164.769V38.71H141.977V59.2794H164.94V54.8182H150.444Z" fill="#0AA373"/>
<path d="M108.002 39.1816H84.8594V43.6857H92.4294V59.751H100.889V43.6857H108.002V39.1816Z" fill="#DD3C3B"/>
<path d="M60.3454 39.1816H36.6562V43.6857H44.2263V59.751H52.6937V43.6857H60.3454V39.1816Z" fill="#DD3C3B"/>
<path d="M77.0778 39.1816H67.9496L57.3125 59.751H62.8513L64.597 56.2183H76.5394L78.2851 59.751H87.7151L77.0778 39.1816ZM66.7097 51.9634L70.6499 43.9952L74.4185 51.9634H66.7097Z" fill="#DD3C3B"/>
<path d="M131.137 39.1816V49.462L117.506 39.1816H110.906V59.751H116.731V48.4306L130.721 59.751H136.961V39.1816H131.137Z" fill="#0AA373"/>
<path d="M41.6283 28.832H38.0078V20.6036H44.0912V21.9202H39.6308V23.7475H41.7078C43.5691 23.7475 44.8289 24.3603 44.8289 26.2217C44.8289 28.117 43.5804 28.832 41.6283 28.832ZM39.6308 25.064V27.5155H41.6964C42.6498 27.5155 43.1718 27.0842 43.1718 26.2671C43.1718 25.4045 42.6384 25.064 41.6737 25.064H39.6308Z" fill="#0AA373"/>
<path d="M45.9185 28.832H45.4532V27.5155H45.6575C46.7243 27.5155 46.8492 25.8471 46.94 23.4524L47.0308 20.6036H52.5239V28.832H50.901V21.9202H48.5857L48.5062 24.0312C48.4154 26.7437 47.8025 28.832 45.9185 28.832Z" fill="#0AA373"/>
<path d="M53.4275 28.832L56.4918 20.6036H58.1262L61.2019 28.832H59.4427L58.8639 27.1637H55.6633L55.0845 28.832H53.4275ZM57.2636 22.5898L56.1287 25.8358H58.3986L57.2636 22.5898Z" fill="#0AA373"/>
<path d="M63.7374 28.832H62.1145V20.6036H67.88V21.9202H63.7374V28.832Z" fill="#0AA373"/>
<path d="M69.6243 24.7122C69.6243 26.6529 70.6912 27.6857 71.9737 27.6857C73.2561 27.6857 74.323 26.6529 74.323 24.7122C74.323 22.7827 73.2561 21.7499 71.9737 21.7499C70.6912 21.7499 69.6243 22.7827 69.6243 24.7122ZM76.0027 24.7122C76.0027 27.2658 74.4251 28.9796 71.9737 28.9796C69.5222 28.9796 67.9446 27.2658 67.9446 24.7122C67.9446 22.1585 69.5222 20.4561 71.9737 20.4561C74.4251 20.4561 76.0027 22.1585 76.0027 24.7122Z" fill="#0AA373"/>
<path d="M78.6026 28.832V21.9202H76.0716V20.6036H82.7678V21.9202H80.2255V28.832H78.6026Z" fill="#0AA373"/>
<path d="M83.6941 28.832V20.6036H86.8946C88.336 20.6036 89.8909 21.0576 89.8909 22.7487C89.8909 23.5205 89.3802 24.2128 88.9603 24.4852C89.5958 24.7916 90.186 25.2683 90.186 26.4032C90.186 28.1738 88.7219 28.832 87.0308 28.832H83.6941ZM85.3171 25.2229V27.5609H87.1103C88.0636 27.5609 88.529 27.1637 88.529 26.4032C88.529 25.6315 88.0523 25.2229 87.0422 25.2229H85.3171ZM85.3171 21.8748V23.9971H86.9968C87.7685 23.9971 88.2225 23.634 88.2225 22.9076C88.2225 22.2607 87.7572 21.8748 86.9968 21.8748H85.3171Z" fill="#0AA373"/>
<path d="M92.7888 24.7122C92.7888 26.6529 93.8557 27.6857 95.1382 27.6857C96.4207 27.6857 97.4876 26.6529 97.4876 24.7122C97.4876 22.7827 96.4207 21.7499 95.1382 21.7499C93.8557 21.7499 92.7888 22.7827 92.7888 24.7122ZM99.1673 24.7122C99.1673 27.2658 97.5897 28.9796 95.1382 28.9796C92.6867 28.9796 91.1091 27.2658 91.1091 24.7122C91.1091 22.1585 92.6867 20.4561 95.1382 20.4561C97.5897 20.4561 99.1673 22.1585 99.1673 24.7122Z" fill="#0AA373"/>
<path d="M100.452 20.6036H103.267C104.947 20.6036 106.888 20.842 106.888 23.3275C106.888 25.4272 105.219 25.9379 103.312 25.9379H102.075V28.832H100.452V20.6036ZM103.301 21.8748H102.075V24.6781H103.415C104.413 24.6781 105.219 24.4284 105.219 23.3389C105.219 21.9883 104.175 21.8748 103.301 21.8748Z" fill="#0AA373"/>
<path d="M109.433 28.832H107.9V20.6036H109.433V26.5962L113.303 20.6036H114.835V28.832H113.303V22.8395L109.433 28.832Z" fill="#0AA373"/>
<path d="M118.027 28.832V21.9202H115.496V20.6036H122.192V21.9202H119.65V28.832H118.027Z" fill="#0AA373"/>
<path d="M123.118 28.832V20.6036H129.111V21.9202H124.741V23.9631H128.872V25.2796H124.741V27.5155H129.111V28.832H123.118Z" fill="#0AA373"/>
<path d="M130.419 28.832H129.954V27.5155H130.158C131.225 27.5155 131.35 25.8471 131.441 23.4524L131.532 20.6036H137.025V28.832H135.402V21.9202H133.086L133.007 24.0312C132.916 26.7437 132.303 28.832 130.419 28.832Z" fill="#0AA373"/>
<path d="M141.503 28.832H138.768V20.6036H140.391V23.4637H141.503C143.603 23.4637 145.146 23.9744 145.146 26.1536C145.146 28.31 143.603 28.832 141.503 28.832ZM140.391 24.7803V27.5155H141.56C142.616 27.5155 143.489 27.2885 143.489 26.1536C143.489 24.9846 142.616 24.7803 141.56 24.7803H140.391Z" fill="#0AA373"/>
<path d="M151.561 20.6036H153.184V28.832H151.561V25.2796H147.872V28.832H146.249V20.6036H147.872V23.9631H151.561V20.6036Z" fill="#0AA373"/>
<path d="M157.402 28.832H154.928V20.6036H156.551V23.4637H157.402C159.49 23.4637 161.034 23.9744 161.034 26.1536C161.034 28.31 159.49 28.832 157.402 28.832ZM156.551 24.7803V27.5155H157.447C158.503 27.5155 159.388 27.2885 159.388 26.1536C159.388 24.9959 158.503 24.7803 157.447 24.7803H156.551ZM163.769 28.832H162.146V20.6036H163.769V28.832Z" fill="#0AA373"/>
<path d="M167.045 28.832H165.513V20.6036H167.045V26.5962L170.915 20.6036H172.447V28.832H170.915V22.8395L167.045 28.832ZM169.065 20.1951C167.873 20.1951 167.022 19.7184 166.943 18.7764H168.089C168.134 19.1396 168.429 19.4346 169.076 19.4346C169.723 19.4346 170.03 19.1396 170.075 18.7764H171.221C171.131 19.7184 170.291 20.1951 169.065 20.1951Z" fill="#0AA373"/>
<path d="M181.45 29.1725H179.918V28.1851C177.614 28.0376 176.286 26.6643 176.286 24.6327C176.286 22.6579 177.614 21.296 179.918 21.1484V20.1497H181.45V21.1484C183.743 21.33 185.093 22.6693 185.093 24.7235C185.093 26.687 183.743 28.0035 181.45 28.1851V29.1725ZM179.918 26.9026V22.4309C178.737 22.5785 177.966 23.3275 177.966 24.6781C177.966 26.006 178.737 26.7551 179.918 26.9026ZM181.45 22.4309V26.9026C182.596 26.7551 183.413 25.9947 183.413 24.6781C183.413 23.3502 182.585 22.5785 181.45 22.4309Z" fill="#0AA373"/>
<path d="M187.697 24.7122C187.697 26.6529 188.764 27.6857 190.046 27.6857C191.329 27.6857 192.396 26.6529 192.396 24.7122C192.396 22.7827 191.329 21.7499 190.046 21.7499C188.764 21.7499 187.697 22.7827 187.697 24.7122ZM194.075 24.7122C194.075 27.2658 192.498 28.9796 190.046 28.9796C187.595 28.9796 186.017 27.2658 186.017 24.7122C186.017 22.1585 187.595 20.4561 190.046 20.4561C192.498 20.4561 194.075 22.1585 194.075 24.7122Z" fill="#0AA373"/>
<path d="M200.672 20.6036H202.295V28.832H200.672V25.2796H196.983V28.832H195.361V20.6036H196.983V23.9631H200.672V20.6036Z" fill="#0AA373"/>
<path d="M204.55 30.5004H203.131V27.5155H203.403C204.55 27.5155 204.879 25.8812 204.97 23.2594L205.049 20.6036H210.61V27.5155H211.688V30.5004H210.27V28.832H204.55V30.5004ZM205.367 27.5155H208.987V21.9202H206.615L206.547 23.6567C206.456 25.7677 206.002 26.8232 205.367 27.5155Z" fill="#0AA373"/>
</svg>
