<svg width="34" height="34" viewBox="0 0 34 34" fill="none" xmlns="http://www.w3.org/2000/svg">
<g opacity="0.4">
<path d="M13.3941 3.73999C14.4987 3.73999 15.3941 4.63542 15.3941 5.73999V16.8166C15.3941 25.0448 9.61354 28.9538 7.697 30.0237C7.3531 30.2156 6.93601 30.0834 6.73352 29.7456C6.55089 29.4409 6.59326 29.0529 6.82618 28.7847C7.83513 27.6231 10.406 24.3383 10.6135 20.814C10.6704 19.8461 9.81488 19.144 8.84527 19.144H2C0.895432 19.144 0 18.2486 0 17.144V5.73999C0 4.63542 0.89543 3.73999 2 3.73999H13.3941Z" fill="#0AA373"/>
<path d="M31.9957 3.74023C33.1002 3.74023 33.9957 4.63566 33.9957 5.74023V16.8169C33.9957 25.0451 28.2151 28.954 26.2986 30.0239C25.9547 30.2159 25.5376 30.0836 25.3351 29.7458C25.1525 29.4412 25.1948 29.0532 25.4277 28.785C26.4367 27.6234 29.0075 24.3385 29.215 20.8143C29.272 19.8463 28.4164 19.1442 27.4468 19.1442H20.6016C19.497 19.1442 18.6016 18.2488 18.6016 17.1442V5.74023C18.6016 4.63567 19.497 3.74023 20.6016 3.74023H31.9957Z" fill="#0AA373"/>
</g>
</svg>
