<svg width="40" height="41" viewBox="0 0 40 41" fill="none" xmlns="http://www.w3.org/2000/svg">
    <path fill-rule="evenodd" clip-rule="evenodd"
        d="M21.4312 14.1368C21.4313 14.1368 21.4312 14.1368 21.4312 14.1368L22.3146 14.8116L23.4188 14.9586C24.4747 15.0994 25.3049 15.9304 25.4447 16.9862C25.4447 16.9862 25.4447 16.9862 25.4447 16.9862L25.5905 18.0866L26.2648 18.9711C26.2648 18.9712 26.2647 18.971 26.2648 18.9711C26.9092 19.8159 26.9108 20.9882 26.2644 21.8341L25.5889 22.718L25.4419 23.8211C25.3012 24.8769 24.4701 25.7071 23.4143 25.8469L22.3154 25.9924L21.4312 26.668C21.4312 26.668 21.4312 26.6679 21.4312 26.668C20.5858 27.314 19.4134 27.3141 18.5679 26.668C18.5679 26.668 18.5679 26.6681 18.5679 26.668L17.6843 25.993L16.5807 25.8455C15.5249 25.7047 14.6948 24.8736 14.555 23.8179C14.555 23.8179 14.555 23.8179 14.555 23.8179L14.4093 22.718L13.7339 21.8341C13.089 20.9889 13.0884 19.8157 13.7338 18.9708L14.4096 18.0866L14.5571 16.9836C14.5571 16.9835 14.5571 16.9837 14.5571 16.9836C14.698 15.928 15.5288 15.0979 16.5843 14.9579L17.6837 14.8117L18.5678 14.1368C18.5679 14.1367 18.5677 14.1368 18.5678 14.1368C19.4132 13.4909 20.5858 13.4908 21.4312 14.1368ZM18.4651 16.1023C18.3592 16.1917 18.2275 16.2526 18.0807 16.2722L16.782 16.4448C16.3978 16.4957 16.0952 16.7977 16.0439 17.1818L15.8699 18.4834C15.8512 18.6229 15.7952 18.7487 15.7129 18.8517L15.7036 18.8639L14.9259 19.8813C14.9258 19.8814 14.9259 19.8812 14.9259 19.8813C14.6916 20.1883 14.691 20.6154 14.9259 20.9235C14.926 20.9236 14.9258 20.9234 14.9259 20.9235L15.7225 21.966C15.8019 22.07 15.8528 22.1931 15.87 22.3228L16.042 23.6208C16.0929 24.0051 16.3949 24.3074 16.779 24.3586L18.0806 24.5327C18.21 24.55 18.3327 24.6008 18.4365 24.68L19.4785 25.476C19.7863 25.7113 20.2126 25.7113 20.5205 25.4761L21.5337 24.702C21.6397 24.6124 21.7716 24.5513 21.9187 24.5319L23.2174 24.3599C23.6016 24.309 23.9038 24.0071 23.9551 23.623C23.9551 23.623 23.9551 23.623 23.9551 23.623L24.1284 22.3217C24.147 22.1821 24.2031 22.0561 24.2854 21.953L24.2948 21.9409L25.0726 20.9233C25.0726 20.9233 25.0726 20.9234 25.0726 20.9233C25.3074 20.6159 25.3076 20.1894 25.0723 19.881L24.2767 18.8374C24.1975 18.7335 24.1468 18.6107 24.1297 18.4812L23.9577 17.1832C23.9068 16.7991 23.6049 16.4968 23.2209 16.4455C23.2208 16.4455 23.2209 16.4455 23.2209 16.4455L21.9189 16.2721C21.7893 16.2549 21.6664 16.2041 21.5626 16.1247L20.5206 15.3287C20.2127 15.0935 19.7864 15.0934 19.4786 15.3286L18.4651 16.1023ZM24.2812 21.9585L24.2823 21.9571C24.2813 21.9584 24.2812 21.9585 24.2812 21.9585Z"
        fill="white" />
    <path fill-rule="evenodd" clip-rule="evenodd"
        d="M22.3991 18.9399C22.692 19.2328 22.692 19.7077 22.3991 20.0005L20.0651 22.3345C19.7723 22.6273 19.2977 22.6275 19.0047 22.3348L17.6027 20.9341C17.3097 20.6414 17.3095 20.1665 17.6022 19.8735C17.895 19.5804 18.3699 19.5802 18.6629 19.873L19.5346 20.7438L21.3385 18.9399C21.6314 18.647 22.1062 18.647 22.3991 18.9399Z"
        fill="white" />
</svg>