<svg width="18" height="19" viewBox="0 0 18 19" fill="none" xmlns="http://www.w3.org/2000/svg">
<path d="M12.75 16.25V14.75C12.75 13.9544 12.4339 13.1913 11.8713 12.6287C11.3087 12.0661 10.5456 11.75 9.75 11.75H3.75C2.95435 11.75 2.19129 12.0661 1.62868 12.6287C1.06607 13.1913 0.75 13.9544 0.75 14.75V16.25" stroke="white" stroke-linecap="round" stroke-linejoin="round"/>
<path d="M6.75 8.75C8.40685 8.75 9.75 7.40685 9.75 5.75C9.75 4.09315 8.40685 2.75 6.75 2.75C5.09315 2.75 3.75 4.09315 3.75 5.75C3.75 7.40685 5.09315 8.75 6.75 8.75Z" stroke="white" stroke-linecap="round" stroke-linejoin="round"/>
<path d="M17.25 16.2499V14.7499C17.2495 14.0852 17.0283 13.4395 16.621 12.9141C16.2138 12.3888 15.6436 12.0136 15 11.8474" stroke="white" stroke-linecap="round" stroke-linejoin="round"/>
<path d="M12 2.84741C12.6453 3.01264 13.2173 3.38794 13.6257 3.91414C14.0342 4.44035 14.2559 5.08753 14.2559 5.75366C14.2559 6.41979 14.0342 7.06697 13.6257 7.59318C13.2173 8.11939 12.6453 8.49469 12 8.65991" stroke="white" stroke-linecap="round" stroke-linejoin="round"/>
</svg>
