<svg width="17" height="17" viewBox="0 0 17 17" fill="none" xmlns="http://www.w3.org/2000/svg">
    <g clip-path="url(#clip0_805_17924)">
        <path
            d="M14.2168 7.44849C14.2168 12.1152 8.2168 16.1152 8.2168 16.1152C8.2168 16.1152 2.2168 12.1152 2.2168 7.44849C2.2168 5.85719 2.84894 4.33106 3.97416 3.20585C5.09937 2.08063 6.6255 1.44849 8.2168 1.44849C9.8081 1.44849 11.3342 2.08063 12.4594 3.20585C13.5847 4.33106 14.2168 5.85719 14.2168 7.44849Z"
            stroke="#1B1D1C" stroke-linecap="round" stroke-linejoin="round" />
        <path
            d="M8.2168 9.44849C9.32137 9.44849 10.2168 8.55306 10.2168 7.44849C10.2168 6.34392 9.32137 5.44849 8.2168 5.44849C7.11223 5.44849 6.2168 6.34392 6.2168 7.44849C6.2168 8.55306 7.11223 9.44849 8.2168 9.44849Z"
            stroke="#1B1D1C" stroke-linecap="round" stroke-linejoin="round" />
    </g>
    <defs>
        <clipPath id="clip0_805_17924">
            <rect width="16" height="16" fill="white" transform="translate(0.216797 0.781738)" />
        </clipPath>
    </defs>
</svg>