<svg width="17" height="17" viewBox="0 0 17 17" fill="none" xmlns="http://www.w3.org/2000/svg">
    <g clip-path="url(#clip0_805_17941)">
        <path
            d="M11.5495 14.7817V13.4484C11.5495 12.7412 11.2685 12.0629 10.7684 11.5628C10.2683 11.0627 9.59006 10.7817 8.88281 10.7817H3.54948C2.84224 10.7817 2.16396 11.0627 1.66386 11.5628C1.16376 12.0629 0.882813 12.7412 0.882812 13.4484V14.7817"
            stroke="#1B1D1C" stroke-linecap="round" stroke-linejoin="round" />
        <path
            d="M6.21745 8.11507C7.69021 8.11507 8.88411 6.92116 8.88411 5.44841C8.88411 3.97565 7.69021 2.78174 6.21745 2.78174C4.74469 2.78174 3.55078 3.97565 3.55078 5.44841C3.55078 6.92116 4.74469 8.11507 6.21745 8.11507Z"
            stroke="#1B1D1C" stroke-linecap="round" stroke-linejoin="round" />
        <path
            d="M15.5508 14.7817V13.4484C15.5503 12.8576 15.3537 12.2836 14.9917 11.8166C14.6297 11.3496 14.1229 11.0161 13.5508 10.8684"
            stroke="#1B1D1C" stroke-linecap="round" stroke-linejoin="round" />
        <path
            d="M10.8828 2.86841C11.4564 3.01528 11.9648 3.34888 12.3279 3.81662C12.691 4.28435 12.888 4.85963 12.888 5.45174C12.888 6.04385 12.691 6.61913 12.3279 7.08687C11.9648 7.55461 11.4564 7.88821 10.8828 8.03507"
            stroke="#1B1D1C" stroke-linecap="round" stroke-linejoin="round" />
    </g>
    <defs>
        <clipPath id="clip0_805_17941">
            <rect width="16" height="16" fill="white" transform="translate(0.216797 0.781738)" />
        </clipPath>
    </defs>
</svg>