<svg width="31" height="9" viewBox="0 0 31 9" fill="none" xmlns="http://www.w3.org/2000/svg">
<path d="M26.2299 1.17825C27.2762 1.51575 28.1305 1.8918 28.7823 2.28514C29.4408 2.6826 29.8506 3.07241 30.0638 3.4182C30.2626 3.74061 30.2869 4.01271 30.2081 4.27107C30.1203 4.55842 29.8752 4.91995 29.3593 5.32169C28.3188 6.13204 26.4631 6.88321 23.9533 7.42419C21.4644 7.96065 18.5215 8.25 15.5 8.25C12.4785 8.25 9.5356 7.96065 7.04669 7.42418C4.53686 6.88321 2.68122 6.13203 1.64069 5.32169C1.12484 4.91995 0.879679 4.55842 0.791947 4.27107C0.713063 4.01271 0.737408 3.74061 0.936218 3.4182C1.14944 3.07241 1.55917 2.6826 2.21775 2.28514C2.8695 1.8918 3.72383 1.51575 4.7701 1.17825" stroke="#0AA373" stroke-width="1.5" stroke-linecap="round"/>
</svg>
