<svg width="18" height="18" viewBox="0 0 18 18" fill="none" xmlns="http://www.w3.org/2000/svg">
<path fill-rule="evenodd" clip-rule="evenodd" d="M6 3H12C12.4142 3 12.75 3.33579 12.75 3.75V8.25C12.75 10.3211 11.0711 12 9 12V12C6.92893 12 5.25 10.3211 5.25 8.25V3.75C5.25 3.33579 5.58579 3 6 3Z" stroke="#1B1D1C" stroke-width="1.5" stroke-linecap="round" stroke-linejoin="round"/>
<path d="M12.5049 9.58518L13.9239 8.87568C14.8132 8.43103 15.375 7.5221 15.375 6.52783V5.52515C15.375 5.16271 15.0811 4.8689 14.7187 4.8689H12.75" stroke="#1B1D1C" stroke-width="1.5" stroke-linecap="round" stroke-linejoin="round"/>
<path d="M9 15V12" stroke="#1B1D1C" stroke-width="1.5" stroke-linecap="round" stroke-linejoin="round"/>
<path d="M12 15H6" stroke="#1B1D1C" stroke-width="1.5" stroke-linecap="round" stroke-linejoin="round"/>
<path d="M5.49508 9.58518L4.07608 8.87568C3.18677 8.43103 2.62501 7.5221 2.625 6.52783V5.52515C2.625 5.16271 2.91881 4.8689 3.28125 4.8689H5.25" stroke="#1B1D1C" stroke-width="1.5" stroke-linecap="round" stroke-linejoin="round"/>
</svg>
