<svg width="16" height="16" viewBox="0 0 16 16" fill="none" xmlns="http://www.w3.org/2000/svg">
<path fill-rule="evenodd" clip-rule="evenodd" d="M10.968 4.8674C10.968 6.44813 9.63612 7.73395 7.99766 7.73395C6.35956 7.73395 5.02733 6.44813 5.02733 4.8674C5.02733 3.28616 6.35956 2 7.99766 2C9.63612 2 10.968 3.28616 10.968 4.8674ZM9.22753 4.8674C9.22753 4.21274 8.67587 3.6804 7.99767 3.6804C7.32 3.6804 6.7678 4.21274 6.7678 4.8674C6.7678 5.52155 7.32 6.05424 7.99767 6.05424C8.67587 6.05424 9.22753 5.52155 9.22753 4.8674Z" fill="#0AA373"/>
<path d="M10.9319 9.38472C10.3948 9.71034 9.81167 9.94125 9.20704 10.0742L10.8675 11.6772C11.2077 12.0049 11.2077 12.5371 10.8675 12.8651C10.5277 13.1931 9.97695 13.1931 9.6375 12.8651L8.0049 11.2899L6.37373 12.8651C6.20365 13.0289 5.98078 13.1109 5.75791 13.1109C5.5354 13.1109 5.31289 13.0289 5.1428 12.8651C4.80299 12.5371 4.80299 12.0053 5.14245 11.6772L6.80312 10.0742C6.1985 9.94125 5.61538 9.70999 5.07829 9.38472C4.67183 9.13734 4.54973 8.61906 4.80584 8.22637C5.06123 7.83316 5.59832 7.71478 6.00549 7.96217C7.22149 8.70055 8.78796 8.70072 10.0047 7.96217C10.4118 7.71478 10.9488 7.83316 11.2047 8.22637C11.4608 8.61872 11.3383 9.13734 10.9319 9.38472Z" fill="#0AA373"/>
</svg>
