<svg width="16" height="16" viewBox="0 0 16 16" fill="none" xmlns="http://www.w3.org/2000/svg">
<path fill-rule="evenodd" clip-rule="evenodd" d="M1.82992 7.15318C5.08302 5.7985 7.24865 4.89834 8.33611 4.46163C11.4312 3.22281 12.0818 3.00891 12.5001 3C12.593 3 12.7975 3.01782 12.9369 3.12477C13.0485 3.2139 13.0763 3.32976 13.0949 3.41888C13.1135 3.50801 13.1321 3.69517 13.1135 3.83777C12.9462 5.53112 12.2212 9.63974 11.8495 11.5292C11.6914 12.3313 11.3847 12.5987 11.0873 12.6254C10.4367 12.6789 9.94407 12.2154 9.32133 11.8233C8.33611 11.2083 7.78773 10.8251 6.83039 10.219C5.72434 9.52388 6.44002 9.14065 7.07205 8.51678C7.23935 8.35636 10.0928 5.86088 10.1486 5.63807C10.1578 5.61133 10.1578 5.50439 10.0928 5.45091C10.0277 5.39744 9.93477 5.41526 9.86042 5.43309C9.75818 5.45091 8.19669 6.4491 5.15737 8.41874C4.71124 8.71285 4.31157 8.85545 3.94908 8.84654C3.54942 8.83762 2.78726 8.63264 2.211 8.45439C1.51391 8.24049 0.956235 8.12463 1.00271 7.75031C1.03059 7.55424 1.30943 7.35817 1.82992 7.15318Z" fill="#0AA373"/>
</svg>
