<svg width="16" height="16" viewBox="0 0 16 16" fill="none" xmlns="http://www.w3.org/2000/svg">
<path fill-rule="evenodd" clip-rule="evenodd" d="M2.33 8.97665L3.12667 10.0193L3.29867 11.3173C3.394 12.0373 3.96 12.604 4.68 12.7L5.98133 12.874L7.02333 13.67C7.6 14.1107 8.39933 14.1107 8.976 13.67L10.0187 12.8733H10.0173L11.316 12.7013C12.036 12.606 12.6027 12.04 12.6987 11.32L12.872 10.0187C12.872 10.0193 13.2747 9.49199 13.6687 8.97665C14.1093 8.39999 14.1087 7.60065 13.6687 7.02399L12.8733 5.98065L12.7013 4.68265C12.606 3.96265 12.04 3.39599 11.32 3.29999L10.018 3.12665L8.976 2.33065C8.39933 1.88999 7.6 1.88999 7.02333 2.33065L5.98067 3.12665H5.982L4.68333 3.29932C3.96333 3.39465 3.39667 3.96065 3.30067 4.68065L3.12667 5.98199C3.12667 5.98132 2.724 6.50865 2.33 7.02399C1.89 7.59999 1.89 8.39999 2.33 8.97665V8.97665Z" stroke="white" stroke-width="1.5" stroke-linecap="round" stroke-linejoin="round"/>
<path d="M9.86857 7.06799L7.53457 9.40199L6.13257 8.00133" stroke="white" stroke-width="1.5" stroke-linecap="round" stroke-linejoin="round"/>
</svg>
