<svg width="18" height="13" viewBox="0 0 18 13" fill="none" xmlns="http://www.w3.org/2000/svg">
<path d="M17.8207 2.80505C17.8207 2.80505 17.6449 1.53069 17.1035 0.971119C16.418 0.234657 15.6516 0.231047 15.3 0.187726C12.7828 -1.03286e-07 9.00352 0 9.00352 0H8.99648C8.99648 0 5.21719 -1.03286e-07 2.7 0.187726C2.34844 0.231047 1.58203 0.234657 0.896484 0.971119C0.355078 1.53069 0.182812 2.80505 0.182812 2.80505C0.182812 2.80505 0 4.30325 0 5.79783V7.19855C0 8.69314 0.179297 10.1913 0.179297 10.1913C0.179297 10.1913 0.355078 11.4657 0.892969 12.0253C1.57852 12.7617 2.47852 12.7365 2.8793 12.8159C4.3207 12.9567 9 13 9 13C9 13 12.7828 12.9928 15.3 12.8087C15.6516 12.7653 16.418 12.7617 17.1035 12.0253C17.6449 11.4657 17.8207 10.1913 17.8207 10.1913C17.8207 10.1913 18 8.69675 18 7.19855V5.79783C18 4.30325 17.8207 2.80505 17.8207 2.80505ZM7.14023 8.89892V3.70397L12.0023 6.31047L7.14023 8.89892Z" fill="#313131"/>
</svg>
