<svg width="352" height="284" viewBox="0 0 352 284" fill="none" xmlns="http://www.w3.org/2000/svg">
<path d="M173.717 78.8007C174.274 77.7098 175.832 77.7098 176.389 78.8007L186.248 98.1192C187.192 99.9699 188.965 101.258 191.017 101.584L212.436 104.991C213.646 105.183 214.127 106.665 213.262 107.532L197.935 122.878C196.467 124.348 195.79 126.432 196.114 128.484L199.493 149.908C199.684 151.118 198.423 152.034 197.331 151.479L178 141.644C176.148 140.702 173.958 140.702 172.106 141.644L152.775 151.479C151.683 152.034 150.422 151.118 150.613 149.908L153.992 128.484C154.316 126.432 153.639 124.348 152.17 122.878L136.844 107.532C135.978 106.665 136.46 105.183 137.67 104.991L159.089 101.584C161.141 101.258 162.913 99.9699 163.858 98.1192L173.717 78.8007Z" stroke="white" stroke-width="5"/>
<path d="M111.932 53C111.932 51.067 113.499 49.5 115.432 49.5H235.661C237.594 49.5 239.161 51.067 239.161 53V139.758C239.161 174.891 210.68 203.372 175.546 203.372C140.413 203.372 111.932 174.891 111.932 139.758V53Z" stroke="white" stroke-width="5"/>
<path d="M155.811 199.952V251.264H195.282V199.952" stroke="white" stroke-width="5"/>
<rect x="138.575" y="251.791" width="73.9427" height="16.7093" stroke="white" stroke-width="5"/>
<path d="M240.214 74.1697H278.092C280.025 74.1697 281.592 75.7367 281.592 77.6697V100.286C281.592 123.681 263.284 142.799 240.214 144.095V74.1697Z" stroke="white" stroke-width="5"/>
<path d="M110.879 74.1697H73C71.0671 74.1697 69.5 75.7367 69.5 77.6697V100.286C69.5 123.681 87.8085 142.799 110.879 144.095V74.1697Z" stroke="white" stroke-width="5"/>
<path d="M326 281V258H349" stroke="#2DFFB3" stroke-width="5" stroke-linecap="round" stroke-linejoin="round"/>
<path d="M26 3V26H3" stroke="#2DFFB3" stroke-width="5" stroke-linecap="round" stroke-linejoin="round"/>
</svg>
