<svg width="354" height="258" viewBox="0 0 354 258" fill="none" xmlns="http://www.w3.org/2000/svg">
<path fill-rule="evenodd" clip-rule="evenodd" d="M85.2758 193.261L77.4297 228.57L112.739 220.724C160.304 254.048 225.451 245.485 262.788 201C300.125 156.515 297.263 90.8704 256.196 49.8038C215.13 8.73726 149.485 5.87546 105 43.2124C60.5155 80.5494 51.9518 145.696 85.2758 193.261Z" stroke="white" stroke-width="5" stroke-linecap="round" stroke-linejoin="round"/>
<path fill-rule="evenodd" clip-rule="evenodd" d="M166.3 91.5059V137.072C172.769 137.06 181.721 136.857 189.415 134.312C193.747 132.879 197.496 130.758 200.156 127.67C202.776 124.628 204.5 120.463 204.5 114.6C204.5 108.728 202.775 104.511 200.142 101.402C197.472 98.2491 193.713 96.0548 189.38 94.5496C181.695 91.8801 172.744 91.5473 166.3 91.5059ZM166.3 142.074C172.801 142.066 182.502 141.865 190.985 139.059C195.853 137.449 200.504 134.927 203.944 130.933C207.424 126.893 209.5 121.537 209.5 114.6C209.5 107.656 207.425 102.265 203.958 98.1708C200.528 94.1209 195.887 91.5172 191.02 89.8264C181.443 86.4993 170.331 86.4997 163.967 86.5L163.8 86.5H161.3V89V137.072H151V142.072H161.3V149.872H151V154.872H161.3V169H166.3V154.872H179.8V149.872H166.3V142.074Z" fill="#0AA373"/>
<path d="M26 3V26H3" stroke="#0AA373" stroke-width="5" stroke-linecap="round" stroke-linejoin="round"/>
<path d="M328 255V232H351" stroke="#0AA373" stroke-width="5" stroke-linecap="round" stroke-linejoin="round"/>
</svg>
