<svg width="28" height="27" viewBox="0 0 28 27" fill="none" xmlns="http://www.w3.org/2000/svg">
<g clip-path="url(#clip0_807_22048)">
<path d="M19.5004 20.9997L14.5032 16.0025L9.50594 20.9997C9.24087 21.2648 8.88136 21.4137 8.50649 21.4137C8.13163 21.4137 7.77212 21.2648 7.50705 20.9997C7.24198 20.7347 7.09306 20.3752 7.09306 20.0003C7.09306 19.6254 7.24198 19.2659 7.50705 19.0008L12.5043 14.0036L7.50705 9.00637C7.24198 8.7413 7.09306 8.38179 7.09306 8.00693C7.09306 7.63206 7.24198 7.27255 7.50705 7.00748C7.77212 6.74241 8.13163 6.59349 8.50649 6.5935C8.88136 6.5935 9.24087 6.74241 9.50594 7.00748L14.5032 12.0047L19.5004 7.00748C19.7655 6.74241 20.125 6.59349 20.4999 6.59349C20.8747 6.59349 21.2342 6.74241 21.4993 7.00748C21.7644 7.27255 21.9133 7.63206 21.9133 8.00693C21.9133 8.38179 21.7644 8.7413 21.4993 9.00637L16.5021 14.0036L21.4993 19.0008C21.7644 19.2659 21.9133 19.6254 21.9133 20.0003C21.9133 20.3752 21.7644 20.7347 21.4993 20.9997C21.2342 21.2648 20.8747 21.4137 20.4999 21.4137C20.125 21.4137 19.7655 21.2648 19.5004 20.9997Z" fill="#1B1D1C"/>
</g>
<defs>
<clipPath id="clip0_807_22048">
<rect width="26.5092" height="26.5092" fill="white" transform="translate(0.745361 0.245361)"/>
</clipPath>
</defs>
</svg>
