<svg width="24" height="24" viewBox="0 0 24 24" fill="none" xmlns="http://www.w3.org/2000/svg">
<path d="M6.79585 5.54194L7.82475 4.51303C7.84953 4.48813 7.86683 4.45676 7.87467 4.42251C7.88252 4.38826 7.88059 4.3525 7.86911 4.31929C7.85764 4.28608 7.83707 4.25676 7.80975 4.23466C7.78244 4.21256 7.74947 4.19857 7.7146 4.19428L3.95991 3.75131C3.84038 3.73725 3.73725 3.83803 3.75131 3.95991L4.19428 7.7146C4.21303 7.86928 4.40288 7.93491 4.51303 7.82475L5.53725 6.80053L8.67085 9.93178C8.7435 10.0044 8.86303 10.0044 8.93569 9.93178L9.92944 8.94038C10.0021 8.86772 10.0021 8.74819 9.92944 8.67553L6.79585 5.54194ZM15.0623 9.93178C15.1349 10.0044 15.2544 10.0044 15.3271 9.93178L18.4607 6.80053L19.4849 7.82475C19.5098 7.84953 19.5412 7.86683 19.5754 7.87467C19.6097 7.88252 19.6454 7.88059 19.6786 7.86911C19.7119 7.85764 19.7412 7.83707 19.7633 7.80975C19.7854 7.78244 19.7994 7.74947 19.8037 7.7146L20.2466 3.96225C20.2607 3.84272 20.1599 3.7396 20.038 3.75366L16.2833 4.19663C16.1287 4.21538 16.063 4.40522 16.1732 4.51538L17.2021 5.54428L14.0685 8.67319C14.0336 8.70843 14.014 8.75602 14.014 8.80561C14.014 8.8552 14.0336 8.90279 14.0685 8.93803L15.0623 9.93178ZM19.8037 16.288C19.7849 16.1333 19.5951 16.0677 19.4849 16.1779L18.4607 17.2021L15.3271 14.0708C15.2919 14.036 15.2443 14.0164 15.1947 14.0164C15.1451 14.0164 15.0975 14.036 15.0623 14.0708L14.0685 15.0623C14.0336 15.0975 14.014 15.1451 14.014 15.1947C14.014 15.2443 14.0336 15.2919 14.0685 15.3271L17.2021 18.4607L16.1732 19.4896C16.1484 19.5145 16.1311 19.5459 16.1233 19.5801C16.1154 19.6144 16.1173 19.6501 16.1288 19.6833C16.1403 19.7165 16.1609 19.7459 16.1882 19.768C16.2155 19.7901 16.2485 19.8041 16.2833 19.8083L20.038 20.2513C20.1576 20.2654 20.2607 20.1646 20.2466 20.0427L19.8037 16.288ZM8.93569 14.0708C8.90045 14.036 8.85286 14.0164 8.80327 14.0164C8.75367 14.0164 8.70609 14.036 8.67085 14.0708L5.53725 17.2021L4.51303 16.1779C4.48813 16.1531 4.45676 16.1358 4.42251 16.128C4.38826 16.1201 4.3525 16.122 4.31929 16.1335C4.28608 16.145 4.25676 16.1656 4.23466 16.1929C4.21256 16.2202 4.19857 16.2532 4.19428 16.288L3.75131 20.0404C3.73725 20.1599 3.83803 20.263 3.95991 20.249L7.7146 19.806C7.86928 19.7873 7.93491 19.5974 7.82475 19.4873L6.79585 18.4607L9.92944 15.3294C10.0021 15.2568 10.0021 15.1373 9.92944 15.0646L8.93569 14.0708Z" fill="white"/>
</svg>
