<svg width="16" height="16" viewBox="0 0 16 16" fill="none" xmlns="http://www.w3.org/2000/svg">
<path d="M8.45926 12.4C4.40741 12.4 2.0963 9.62222 2 5H4.02963C4.0963 8.39259 5.59259 9.82963 6.77778 10.1259V5H8.68889V7.92593C9.85926 7.8 11.0889 6.46667 11.5037 5H13.4148C13.2585 5.76066 12.9469 6.48087 12.4995 7.11561C12.0522 7.75034 11.4786 8.28594 10.8148 8.68889C11.5558 9.05708 12.2103 9.57822 12.7351 10.2179C13.2598 10.8576 13.643 11.6013 13.8593 12.4H11.7556C11.5614 11.7063 11.1669 11.0853 10.6214 10.6149C10.0758 10.1445 9.40359 9.84556 8.68889 9.75556V12.4H8.45926Z" fill="#0AA373"/>
</svg>
